# xmcd
#
# Track frame offsets:
#	150
#	12921
#	24938
#	35222
#	50143
#	68407
#	84491
#	95621
#	117445
#	129756
#
# Disc length: 1937 seconds
# Revision: 0
# Processed by: cddbd v1.5.2PL0 Copyright (c) Steve Scherf et al.
# Submitted via: dBpowerAMP V12.0
#
DISCID=7b078f0a
DTITLE=Various Artist - Country Christmas Classics
DYEAR=2011
DGENRE=Holiday
TTITLE0=Travis Tritt - Winter Wonderland
TTITLE1=Dwight Yoakam - Santa Claus is Back in Town
TTITLE2=Jo Dee Messina - Let It Snow! Let It Snow! Let It Snow!
TTITLE3=Randy Travis - The Christmas Song
TTITLE4=LeAnn Rimes - Have Yourself a Merry Little Christmas
TTITLE5=John Michael Montgomery - White Christmas
TTITLE6=The Judds - Away in the Manger
TTITLE7=B.J. Thomas - Tennessee Christmas
TTITLE8=Clay Walker - Frosty the Snowman
TTITLE9=Neal McCoy - Merry Christmas Darling
EXTD=
EXTT0=
EXTT1=
EXTT2=
EXTT3=
EXTT4=
EXTT5=
EXTT6=
EXTT7=
EXTT8=
EXTT9=
PLAYORDER=
